<?xml version="1.0" encoding="iso-8859-1"?>
<!-- Uploaded to: SVG Repo, www.svgrepo.com, Generator: SVG Repo Mixer Tools -->
<svg fill="#000000" height="800px" width="800px" version="1.1" id="Capa_1" xmlns="http://www.w3.org/2000/svg" xmlns:xlink="http://www.w3.org/1999/xlink" 
	 viewBox="0 0 490 490" xml:space="preserve">
<g>
	<g>
		<path d="M390.1,96.25c-19.8-56.2-77-95.7-144.6-95.7s-124.8,39.5-145.6,95.7c-55.1,1-99.9,42.7-99.9,93.6
			c0,44.7,36.4,83.2,83.2,91.5v187.3c0,11.4,9.4,20.8,20.8,20.8h283c11.4,0,19.8-9.4,19.8-20.8v-187.2c47.9-8.3,83.2-45.8,83.2-91.5
			C490,138.95,445.3,97.35,390.1,96.25z M388,242.95c-11.4,0-20.8,9.4-20.8,20.8v185.2H124.8v-185.2c0-11.4-9.4-20.8-20.8-20.8
			c-34.3,0-62.4-23.9-62.4-53.1c0-29.1,28.1-53.1,62.4-53.1c2.1,0,5.2,1,9.4,1c10.4,1,20.8-6.2,22.9-16.6
			c9.4-46.8,55.1-80.1,109.2-80.1s99.9,34.3,110.3,80.1c2.1,10.4,12.5,17.7,22.9,16.6c3.1-1,6.2-1,9.4-1c34.3,0,62.4,23.9,62.4,53.1
			C450.5,219.05,422.4,242.95,388,242.95z"/>
		<path d="M203.9,310.55c-11.4,0-20.8,9.4-20.8,20.8v56.2c0,11.4,9.4,20.8,20.8,20.8c10.4,0,19.8-8.3,20.8-20.8v-56.2
			C224.7,319.95,215.4,310.55,203.9,310.55z"/>
		<path d="M287.1,310.55c-11.4,0-20.8,9.4-20.8,20.8v56.2c0,11.4,9.4,20.8,20.8,20.8s20.8-8.3,20.8-20.8v-56.2
			C307.9,319.95,298.6,310.55,287.1,310.55z"/>
	</g>
</g>
</svg>